<svg fill="#f4d171" height="40" width="40" xmlns="http://www.w3.org/2000/svg" viewBox="0 0 512 512" xml:space="preserve">
    <path d="M435.2 264.533c-10.129 0-19.78 2.022-28.646 5.598l-18.961-35.217c15.181-5.035 48.213-12.681 77.73 3.021 4.147 2.219 9.336.64 11.546-3.524 2.219-4.156.631-9.327-3.524-11.546-12.74-6.775-25.788-9.924-38.144-10.982v-15.616a8.543 8.543 0 0 0-1.869-5.333l-34.133-42.667a8.54 8.54 0 0 0-6.665-3.2h-11.29l-14.916-37.308a8.552 8.552 0 0 0-7.927-5.359h-59.733c0-4.71-3.814-8.533-8.533-8.533S281.6 97.69 281.6 102.4h-8.533a8.53 8.53 0 0 0-8.533 8.533 8.53 8.53 0 0 0 8.533 8.533h8.533c0 4.71 3.814 8.533 8.533 8.533s8.533-3.823 8.533-8.533h25.6v25.6h-25.6c-2.27 0-4.437.896-6.033 2.5l-31.206 31.206-138.018-16.239-14.976-14.967a8.497 8.497 0 0 0-6.033-2.5H76.8c-2.27 0-4.437.896-6.033 2.5l-14.566 14.566H34.133a8.53 8.53 0 0 0-8.533 8.533V204.8a8.53 8.53 0 0 0 8.533 8.533h57.856l104.277 48.128v39.185l-47.991 12.8c-11.187-28.587-38.972-48.913-71.475-48.913-42.351 0-76.8 34.458-76.8 76.8s34.449 76.8 76.8 76.8 76.8-34.458 76.8-76.8c0-3.883-.384-7.663-.939-11.401l43.605-11.622v14.49a8.53 8.53 0 0 0 8.533 8.533h119.467a8.541 8.541 0 0 0 7.637-4.719l43.844-87.688 15.787 29.312c-19.994 13.875-33.135 36.966-33.135 63.095 0 42.342 34.449 76.8 76.8 76.8s76.8-34.458 76.8-76.8c.001-42.342-34.448-76.8-76.799-76.8zM76.8 401.067c-32.93 0-59.733-26.795-59.733-59.733 0-32.939 26.803-59.733 59.733-59.733 24.602 0 45.773 14.959 54.912 36.258L74.598 333.09c-4.548 1.22-7.262 5.888-6.042 10.445 1.015 3.814 4.471 6.332 8.235 6.332.734 0 1.468-.094 2.21-.29l57.088-15.223c.265 2.295.444 4.617.444 6.98 0 32.938-26.803 59.733-59.733 59.733zm295.023-178.381a8.55 8.55 0 0 0-3.994 3.9l-48.836 97.681h-105.66V256a8.532 8.532 0 0 0-4.958-7.748l-110.933-51.2a8.457 8.457 0 0 0-3.575-.785h-51.2V179.2h17.067c2.27 0 4.437-.896 6.033-2.5l14.566-14.566h18.534l14.566 14.566a8.522 8.522 0 0 0 5.035 2.441l145.067 17.067c2.586.265 5.18-.597 7.031-2.44l31.633-31.633h30.6a8.53 8.53 0 0 0 8.533-8.533v-34.133h11.29l14.916 37.308a8.552 8.552 0 0 0 7.927 5.359h12.971l13.653 17.067h-9.557c-4.719 0-8.533 3.823-8.533 8.533s3.814 8.533 8.533 8.533h23.202l2.398 2.995v12.407c-25.547 1.509-44.986 10.392-46.309 11.015zM435.2 401.067c-32.93 0-59.733-26.795-59.733-59.733 0-19.635 9.566-37.035 24.235-47.923l27.981 51.968a8.537 8.537 0 0 0 7.526 4.489 8.415 8.415 0 0 0 4.036-1.024c4.147-2.236 5.709-7.407 3.473-11.554l-27.998-51.994c6.4-2.347 13.278-3.695 20.48-3.695 32.93 0 59.733 26.795 59.733 59.733 0 32.938-26.803 59.733-59.733 59.733z"/>
</svg>
